<mxfile host="app.diagrams.net" agent="Mozilla/5.0 (Windows NT 10.0; Win64; x64) AppleWebKit/537.36 (KHTML, like Gecko) Chrome/130.0.0.0 Safari/537.36" version="24.8.3">
  <diagram name="Pagina-1" id="Ac-OBfrbWdnEvAkecJNc">
    <mxGraphModel dx="2560" dy="478" grid="1" gridSize="10" guides="1" tooltips="1" connect="1" arrows="1" fold="1" page="1" pageScale="1" pageWidth="827" pageHeight="1169" math="0" shadow="0">
      <root>
        <mxCell id="0" />
        <mxCell id="1" parent="0" />
        <mxCell id="9Q_260vBjeD41utI28-m-216" value="" style="rounded=0;whiteSpace=wrap;html=1;fillColor=none;movable=1;resizable=1;rotatable=1;deletable=1;editable=1;locked=0;connectable=1;" vertex="1" parent="1">
          <mxGeometry x="-1597" y="220" width="468" height="430" as="geometry" />
        </mxCell>
        <mxCell id="9Q_260vBjeD41utI28-m-170" style="edgeStyle=orthogonalEdgeStyle;rounded=0;orthogonalLoop=1;jettySize=auto;html=1;exitX=0.5;exitY=0;exitDx=0;exitDy=0;entryX=0.5;entryY=0;entryDx=0;entryDy=0;endArrow=none;endFill=0;strokeColor=#3333FF;" edge="1" parent="1" source="9Q_260vBjeD41utI28-m-163" target="9Q_260vBjeD41utI28-m-165">
          <mxGeometry relative="1" as="geometry">
            <Array as="points">
              <mxPoint x="-1524" y="299.98" />
              <mxPoint x="-1444" y="299.98" />
            </Array>
          </mxGeometry>
        </mxCell>
        <mxCell id="9Q_260vBjeD41utI28-m-171" style="edgeStyle=orthogonalEdgeStyle;rounded=0;orthogonalLoop=1;jettySize=auto;html=1;exitX=0.75;exitY=0;exitDx=0;exitDy=0;entryX=0.25;entryY=0;entryDx=0;entryDy=0;endArrow=none;endFill=0;fillColor=#e51400;strokeColor=#B20000;" edge="1" parent="1" source="9Q_260vBjeD41utI28-m-163" target="9Q_260vBjeD41utI28-m-165">
          <mxGeometry relative="1" as="geometry">
            <Array as="points">
              <mxPoint x="-1516" y="309.98" />
              <mxPoint x="-1452" y="309.98" />
            </Array>
          </mxGeometry>
        </mxCell>
        <mxCell id="9Q_260vBjeD41utI28-m-172" style="edgeStyle=orthogonalEdgeStyle;rounded=0;orthogonalLoop=1;jettySize=auto;html=1;exitX=0.25;exitY=0;exitDx=0;exitDy=0;entryX=0.75;entryY=0;entryDx=0;entryDy=0;endArrow=none;endFill=0;" edge="1" parent="1" source="9Q_260vBjeD41utI28-m-163" target="9Q_260vBjeD41utI28-m-165">
          <mxGeometry relative="1" as="geometry">
            <Array as="points">
              <mxPoint x="-1531" y="289.98" />
              <mxPoint x="-1436" y="289.98" />
            </Array>
          </mxGeometry>
        </mxCell>
        <mxCell id="9Q_260vBjeD41utI28-m-163" value="&lt;font style=&quot;font-size: 9px;&quot;&gt;LED STRIP&lt;/font&gt;&lt;div&gt;&lt;font size=&quot;1&quot;&gt;A&lt;br&gt;&lt;/font&gt;&lt;div&gt;&lt;font style=&quot;&quot;&gt;&lt;font size=&quot;1&quot;&gt;↓&lt;/font&gt;&lt;/font&gt;&lt;/div&gt;&lt;/div&gt;" style="rounded=0;whiteSpace=wrap;html=1;movable=1;resizable=1;rotatable=1;deletable=1;editable=1;locked=0;connectable=1;" vertex="1" parent="1">
          <mxGeometry x="-1539" y="319.98" width="30" height="190" as="geometry" />
        </mxCell>
        <mxCell id="9Q_260vBjeD41utI28-m-169" style="edgeStyle=orthogonalEdgeStyle;rounded=0;orthogonalLoop=1;jettySize=auto;html=1;exitX=0.5;exitY=0;exitDx=0;exitDy=0;entryX=0.5;entryY=0;entryDx=0;entryDy=0;endArrow=none;endFill=0;strokeColor=#3333FF;" edge="1" parent="1" source="9Q_260vBjeD41utI28-m-164" target="9Q_260vBjeD41utI28-m-166">
          <mxGeometry relative="1" as="geometry">
            <Array as="points">
              <mxPoint x="-1564" y="269.98" />
              <mxPoint x="-1484" y="269.98" />
            </Array>
          </mxGeometry>
        </mxCell>
        <mxCell id="9Q_260vBjeD41utI28-m-173" style="edgeStyle=orthogonalEdgeStyle;rounded=0;orthogonalLoop=1;jettySize=auto;html=1;exitX=0.75;exitY=0;exitDx=0;exitDy=0;entryX=0.25;entryY=0;entryDx=0;entryDy=0;endArrow=none;endFill=0;fillColor=#e51400;strokeColor=#B20000;" edge="1" parent="1" source="9Q_260vBjeD41utI28-m-164" target="9Q_260vBjeD41utI28-m-166">
          <mxGeometry relative="1" as="geometry">
            <Array as="points">
              <mxPoint x="-1556" y="279.98" />
              <mxPoint x="-1491" y="279.98" />
            </Array>
          </mxGeometry>
        </mxCell>
        <mxCell id="9Q_260vBjeD41utI28-m-174" style="edgeStyle=orthogonalEdgeStyle;rounded=0;orthogonalLoop=1;jettySize=auto;html=1;exitX=0.25;exitY=0;exitDx=0;exitDy=0;entryX=0.75;entryY=0;entryDx=0;entryDy=0;endArrow=none;endFill=0;" edge="1" parent="1" source="9Q_260vBjeD41utI28-m-164" target="9Q_260vBjeD41utI28-m-166">
          <mxGeometry relative="1" as="geometry">
            <Array as="points">
              <mxPoint x="-1571" y="259.98" />
              <mxPoint x="-1476" y="259.98" />
            </Array>
          </mxGeometry>
        </mxCell>
        <mxCell id="9Q_260vBjeD41utI28-m-164" value="&lt;font style=&quot;font-size: 9px;&quot;&gt;LED STRIP&lt;/font&gt;&lt;div&gt;&lt;font size=&quot;1&quot;&gt;B&lt;br&gt;&lt;/font&gt;&lt;div&gt;&lt;font style=&quot;&quot;&gt;&lt;font size=&quot;1&quot;&gt;↓&lt;/font&gt;&lt;/font&gt;&lt;/div&gt;&lt;/div&gt;" style="rounded=0;whiteSpace=wrap;html=1;movable=1;resizable=1;rotatable=1;deletable=1;editable=1;locked=0;connectable=1;" vertex="1" parent="1">
          <mxGeometry x="-1579" y="319.98" width="30" height="190" as="geometry" />
        </mxCell>
        <mxCell id="9Q_260vBjeD41utI28-m-209" style="edgeStyle=orthogonalEdgeStyle;rounded=0;orthogonalLoop=1;jettySize=auto;html=1;exitX=0.75;exitY=1;exitDx=0;exitDy=0;entryX=0.25;entryY=1;entryDx=0;entryDy=0;endArrow=none;endFill=0;" edge="1" parent="1" source="9Q_260vBjeD41utI28-m-165" target="9Q_260vBjeD41utI28-m-199">
          <mxGeometry relative="1" as="geometry">
            <Array as="points">
              <mxPoint x="-1436" y="550" />
              <mxPoint x="-1372" y="550" />
            </Array>
          </mxGeometry>
        </mxCell>
        <mxCell id="9Q_260vBjeD41utI28-m-210" style="edgeStyle=orthogonalEdgeStyle;rounded=0;orthogonalLoop=1;jettySize=auto;html=1;exitX=0.5;exitY=1;exitDx=0;exitDy=0;entryX=0.5;entryY=1;entryDx=0;entryDy=0;endArrow=none;endFill=0;strokeColor=#3333FF;" edge="1" parent="1" source="9Q_260vBjeD41utI28-m-165" target="9Q_260vBjeD41utI28-m-199">
          <mxGeometry relative="1" as="geometry">
            <Array as="points">
              <mxPoint x="-1444" y="560" />
              <mxPoint x="-1364" y="560" />
            </Array>
          </mxGeometry>
        </mxCell>
        <mxCell id="9Q_260vBjeD41utI28-m-211" style="edgeStyle=orthogonalEdgeStyle;rounded=0;orthogonalLoop=1;jettySize=auto;html=1;exitX=0.25;exitY=1;exitDx=0;exitDy=0;entryX=0.75;entryY=1;entryDx=0;entryDy=0;endArrow=none;endFill=0;fillColor=#e51400;strokeColor=#B20000;" edge="1" parent="1" source="9Q_260vBjeD41utI28-m-165" target="9Q_260vBjeD41utI28-m-199">
          <mxGeometry relative="1" as="geometry">
            <Array as="points">
              <mxPoint x="-1452" y="570" />
              <mxPoint x="-1356" y="570" />
            </Array>
          </mxGeometry>
        </mxCell>
        <mxCell id="9Q_260vBjeD41utI28-m-165" value="&lt;font style=&quot;font-size: 9px;&quot;&gt;LED STRIP&lt;/font&gt;&lt;div&gt;&lt;font size=&quot;1&quot;&gt;A&lt;br&gt;&lt;/font&gt;&lt;div&gt;&lt;font style=&quot;&quot;&gt;&lt;font size=&quot;1&quot;&gt;↑&lt;/font&gt;&lt;/font&gt;&lt;/div&gt;&lt;/div&gt;" style="rounded=0;whiteSpace=wrap;html=1;movable=1;resizable=1;rotatable=1;deletable=1;editable=1;locked=0;connectable=1;" vertex="1" parent="1">
          <mxGeometry x="-1459" y="319.98" width="30" height="190" as="geometry" />
        </mxCell>
        <mxCell id="9Q_260vBjeD41utI28-m-206" style="edgeStyle=orthogonalEdgeStyle;rounded=0;orthogonalLoop=1;jettySize=auto;html=1;exitX=0.75;exitY=1;exitDx=0;exitDy=0;entryX=0.25;entryY=1;entryDx=0;entryDy=0;endArrow=none;endFill=0;" edge="1" parent="1" source="9Q_260vBjeD41utI28-m-166" target="9Q_260vBjeD41utI28-m-203">
          <mxGeometry relative="1" as="geometry">
            <Array as="points">
              <mxPoint x="-1477" y="520" />
              <mxPoint x="-1411" y="520" />
            </Array>
          </mxGeometry>
        </mxCell>
        <mxCell id="9Q_260vBjeD41utI28-m-207" style="edgeStyle=orthogonalEdgeStyle;rounded=0;orthogonalLoop=1;jettySize=auto;html=1;exitX=0.5;exitY=1;exitDx=0;exitDy=0;entryX=0.5;entryY=1;entryDx=0;entryDy=0;strokeColor=#3333FF;endArrow=none;endFill=0;" edge="1" parent="1" source="9Q_260vBjeD41utI28-m-166" target="9Q_260vBjeD41utI28-m-203">
          <mxGeometry relative="1" as="geometry" />
        </mxCell>
        <mxCell id="9Q_260vBjeD41utI28-m-208" style="edgeStyle=orthogonalEdgeStyle;rounded=0;orthogonalLoop=1;jettySize=auto;html=1;exitX=0.25;exitY=1;exitDx=0;exitDy=0;entryX=0.75;entryY=1;entryDx=0;entryDy=0;fillColor=#e51400;strokeColor=#B20000;endArrow=none;endFill=0;" edge="1" parent="1" source="9Q_260vBjeD41utI28-m-166" target="9Q_260vBjeD41utI28-m-203">
          <mxGeometry relative="1" as="geometry">
            <Array as="points">
              <mxPoint x="-1491" y="540" />
              <mxPoint x="-1396" y="540" />
            </Array>
          </mxGeometry>
        </mxCell>
        <mxCell id="9Q_260vBjeD41utI28-m-166" value="&lt;font style=&quot;font-size: 9px;&quot;&gt;LED STRIP&lt;/font&gt;&lt;div&gt;&lt;font size=&quot;1&quot;&gt;B&lt;br&gt;&lt;/font&gt;&lt;div&gt;&lt;font style=&quot;&quot;&gt;&lt;font size=&quot;1&quot;&gt;↑&lt;/font&gt;&lt;/font&gt;&lt;/div&gt;&lt;/div&gt;" style="rounded=0;whiteSpace=wrap;html=1;movable=1;resizable=1;rotatable=1;deletable=1;editable=1;locked=0;connectable=1;" vertex="1" parent="1">
          <mxGeometry x="-1499" y="319.98" width="30" height="190" as="geometry" />
        </mxCell>
        <mxCell id="9Q_260vBjeD41utI28-m-196" style="edgeStyle=orthogonalEdgeStyle;rounded=0;orthogonalLoop=1;jettySize=auto;html=1;exitX=0.5;exitY=0;exitDx=0;exitDy=0;entryX=0.5;entryY=0;entryDx=0;entryDy=0;endArrow=none;endFill=0;strokeColor=#3333FF;" edge="1" parent="1" source="9Q_260vBjeD41utI28-m-199" target="9Q_260vBjeD41utI28-m-204">
          <mxGeometry relative="1" as="geometry">
            <Array as="points">
              <mxPoint x="-1364" y="299.98" />
              <mxPoint x="-1284" y="299.98" />
            </Array>
          </mxGeometry>
        </mxCell>
        <mxCell id="9Q_260vBjeD41utI28-m-197" style="edgeStyle=orthogonalEdgeStyle;rounded=0;orthogonalLoop=1;jettySize=auto;html=1;exitX=0.75;exitY=0;exitDx=0;exitDy=0;entryX=0.25;entryY=0;entryDx=0;entryDy=0;endArrow=none;endFill=0;fillColor=#e51400;strokeColor=#B20000;" edge="1" parent="1" source="9Q_260vBjeD41utI28-m-199" target="9Q_260vBjeD41utI28-m-204">
          <mxGeometry relative="1" as="geometry">
            <Array as="points">
              <mxPoint x="-1356" y="309.98" />
              <mxPoint x="-1292" y="309.98" />
            </Array>
          </mxGeometry>
        </mxCell>
        <mxCell id="9Q_260vBjeD41utI28-m-198" style="edgeStyle=orthogonalEdgeStyle;rounded=0;orthogonalLoop=1;jettySize=auto;html=1;exitX=0.25;exitY=0;exitDx=0;exitDy=0;entryX=0.75;entryY=0;entryDx=0;entryDy=0;endArrow=none;endFill=0;" edge="1" parent="1" source="9Q_260vBjeD41utI28-m-199" target="9Q_260vBjeD41utI28-m-204">
          <mxGeometry relative="1" as="geometry">
            <Array as="points">
              <mxPoint x="-1371" y="289.98" />
              <mxPoint x="-1276" y="289.98" />
            </Array>
          </mxGeometry>
        </mxCell>
        <mxCell id="9Q_260vBjeD41utI28-m-199" value="&lt;font style=&quot;font-size: 9px;&quot;&gt;LED STRIP&lt;/font&gt;&lt;div&gt;&lt;font size=&quot;1&quot;&gt;A&lt;br&gt;&lt;/font&gt;&lt;div&gt;&lt;font style=&quot;&quot;&gt;&lt;font size=&quot;1&quot;&gt;↓&lt;/font&gt;&lt;/font&gt;&lt;/div&gt;&lt;/div&gt;" style="rounded=0;whiteSpace=wrap;html=1;movable=1;resizable=1;rotatable=1;deletable=1;editable=1;locked=0;connectable=1;" vertex="1" parent="1">
          <mxGeometry x="-1379" y="319.98" width="30" height="190" as="geometry" />
        </mxCell>
        <mxCell id="9Q_260vBjeD41utI28-m-200" style="edgeStyle=orthogonalEdgeStyle;rounded=0;orthogonalLoop=1;jettySize=auto;html=1;exitX=0.5;exitY=0;exitDx=0;exitDy=0;entryX=0.5;entryY=0;entryDx=0;entryDy=0;endArrow=none;endFill=0;strokeColor=#3333FF;" edge="1" parent="1" source="9Q_260vBjeD41utI28-m-203" target="9Q_260vBjeD41utI28-m-205">
          <mxGeometry relative="1" as="geometry">
            <Array as="points">
              <mxPoint x="-1404" y="269.98" />
              <mxPoint x="-1324" y="269.98" />
            </Array>
          </mxGeometry>
        </mxCell>
        <mxCell id="9Q_260vBjeD41utI28-m-201" style="edgeStyle=orthogonalEdgeStyle;rounded=0;orthogonalLoop=1;jettySize=auto;html=1;exitX=0.75;exitY=0;exitDx=0;exitDy=0;entryX=0.25;entryY=0;entryDx=0;entryDy=0;endArrow=none;endFill=0;fillColor=#e51400;strokeColor=#B20000;" edge="1" parent="1" source="9Q_260vBjeD41utI28-m-203" target="9Q_260vBjeD41utI28-m-205">
          <mxGeometry relative="1" as="geometry">
            <Array as="points">
              <mxPoint x="-1396" y="279.98" />
              <mxPoint x="-1331" y="279.98" />
            </Array>
          </mxGeometry>
        </mxCell>
        <mxCell id="9Q_260vBjeD41utI28-m-202" style="edgeStyle=orthogonalEdgeStyle;rounded=0;orthogonalLoop=1;jettySize=auto;html=1;exitX=0.25;exitY=0;exitDx=0;exitDy=0;entryX=0.75;entryY=0;entryDx=0;entryDy=0;endArrow=none;endFill=0;" edge="1" parent="1" source="9Q_260vBjeD41utI28-m-203" target="9Q_260vBjeD41utI28-m-205">
          <mxGeometry relative="1" as="geometry">
            <Array as="points">
              <mxPoint x="-1411" y="259.98" />
              <mxPoint x="-1316" y="259.98" />
            </Array>
          </mxGeometry>
        </mxCell>
        <mxCell id="9Q_260vBjeD41utI28-m-203" value="&lt;font style=&quot;font-size: 9px;&quot;&gt;LED STRIP&lt;/font&gt;&lt;div&gt;&lt;font size=&quot;1&quot;&gt;B&lt;br&gt;&lt;/font&gt;&lt;div&gt;&lt;font style=&quot;&quot;&gt;&lt;font size=&quot;1&quot;&gt;↓&lt;/font&gt;&lt;/font&gt;&lt;/div&gt;&lt;/div&gt;" style="rounded=0;whiteSpace=wrap;html=1;movable=1;resizable=1;rotatable=1;deletable=1;editable=1;locked=0;connectable=1;" vertex="1" parent="1">
          <mxGeometry x="-1419" y="319.98" width="30" height="190" as="geometry" />
        </mxCell>
        <mxCell id="9Q_260vBjeD41utI28-m-204" value="&lt;font style=&quot;font-size: 9px;&quot;&gt;LED STRIP&lt;/font&gt;&lt;div&gt;&lt;font size=&quot;1&quot;&gt;A&lt;br&gt;&lt;/font&gt;&lt;div&gt;&lt;font style=&quot;&quot;&gt;&lt;font size=&quot;1&quot;&gt;↑&lt;/font&gt;&lt;/font&gt;&lt;/div&gt;&lt;/div&gt;" style="rounded=0;whiteSpace=wrap;html=1;movable=1;resizable=1;rotatable=1;deletable=1;editable=1;locked=0;connectable=1;" vertex="1" parent="1">
          <mxGeometry x="-1299" y="319.98" width="30" height="190" as="geometry" />
        </mxCell>
        <mxCell id="9Q_260vBjeD41utI28-m-220" style="edgeStyle=orthogonalEdgeStyle;rounded=0;orthogonalLoop=1;jettySize=auto;html=1;exitX=0.5;exitY=1;exitDx=0;exitDy=0;entryX=0.5;entryY=1;entryDx=0;entryDy=0;strokeColor=#3333FF;endArrow=none;endFill=0;startArrow=none;startFill=0;" edge="1" parent="1" source="9Q_260vBjeD41utI28-m-205" target="9Q_260vBjeD41utI28-m-218">
          <mxGeometry relative="1" as="geometry">
            <Array as="points">
              <mxPoint x="-1324" y="540" />
              <mxPoint x="-1239" y="540" />
            </Array>
          </mxGeometry>
        </mxCell>
        <mxCell id="9Q_260vBjeD41utI28-m-227" value="DATA&lt;div style=&quot;font-size: 8px;&quot;&gt;OUT&lt;/div&gt;" style="edgeLabel;html=1;align=center;verticalAlign=middle;resizable=0;points=[];fontSize=8;" vertex="1" connectable="0" parent="9Q_260vBjeD41utI28-m-220">
          <mxGeometry x="0.0994" relative="1" as="geometry">
            <mxPoint y="-58" as="offset" />
          </mxGeometry>
        </mxCell>
        <mxCell id="9Q_260vBjeD41utI28-m-262" style="edgeStyle=orthogonalEdgeStyle;rounded=0;orthogonalLoop=1;jettySize=auto;html=1;exitX=0.25;exitY=1;exitDx=0;exitDy=0;entryX=0.25;entryY=0;entryDx=0;entryDy=0;endArrow=none;endFill=0;startArrow=none;startFill=0;fillColor=#e51400;strokeColor=#B20000;" edge="1" parent="1" source="9Q_260vBjeD41utI28-m-205" target="9Q_260vBjeD41utI28-m-219">
          <mxGeometry relative="1" as="geometry">
            <Array as="points">
              <mxPoint x="-1331" y="590" />
              <mxPoint x="-1274" y="590" />
            </Array>
          </mxGeometry>
        </mxCell>
        <mxCell id="9Q_260vBjeD41utI28-m-270" value="Power&lt;br style=&quot;font-size: 8px;&quot;&gt;&lt;div style=&quot;font-size: 8px;&quot;&gt;PSU1A&lt;/div&gt;" style="edgeLabel;html=1;align=center;verticalAlign=middle;resizable=0;points=[];fontSize=8;" vertex="1" connectable="0" parent="9Q_260vBjeD41utI28-m-262">
          <mxGeometry x="0.7695" relative="1" as="geometry">
            <mxPoint as="offset" />
          </mxGeometry>
        </mxCell>
        <mxCell id="9Q_260vBjeD41utI28-m-205" value="&lt;font style=&quot;font-size: 9px;&quot;&gt;LED STRIP&lt;/font&gt;&lt;div&gt;&lt;font size=&quot;1&quot;&gt;B&lt;br&gt;&lt;/font&gt;&lt;div&gt;&lt;font style=&quot;&quot;&gt;&lt;font size=&quot;1&quot;&gt;↑&lt;/font&gt;&lt;/font&gt;&lt;/div&gt;&lt;/div&gt;" style="rounded=0;whiteSpace=wrap;html=1;movable=1;resizable=1;rotatable=1;deletable=1;editable=1;locked=0;connectable=1;" vertex="1" parent="1">
          <mxGeometry x="-1339" y="319.98" width="30" height="190" as="geometry" />
        </mxCell>
        <mxCell id="9Q_260vBjeD41utI28-m-223" style="edgeStyle=orthogonalEdgeStyle;rounded=0;orthogonalLoop=1;jettySize=auto;html=1;exitX=0.935;exitY=0.991;exitDx=0;exitDy=0;entryX=0.931;entryY=0.141;entryDx=0;entryDy=0;entryPerimeter=0;exitPerimeter=0;endArrow=none;endFill=0;strokeColor=#00CC66;startArrow=none;startFill=0;" edge="1" parent="1" source="9Q_260vBjeD41utI28-m-218" target="9Q_260vBjeD41utI28-m-219">
          <mxGeometry relative="1" as="geometry" />
        </mxCell>
        <mxCell id="9Q_260vBjeD41utI28-m-228" value="TX" style="edgeLabel;html=1;align=center;verticalAlign=middle;resizable=0;points=[];fontSize=8;" vertex="1" connectable="0" parent="9Q_260vBjeD41utI28-m-223">
          <mxGeometry x="0.03" y="-8" relative="1" as="geometry">
            <mxPoint x="6" y="-10" as="offset" />
          </mxGeometry>
        </mxCell>
        <mxCell id="9Q_260vBjeD41utI28-m-272" style="edgeStyle=orthogonalEdgeStyle;rounded=0;orthogonalLoop=1;jettySize=auto;html=1;exitX=0.348;exitY=0.886;exitDx=0;exitDy=0;entryX=0.5;entryY=1;entryDx=0;entryDy=0;strokeColor=#3333FF;exitPerimeter=0;endArrow=none;endFill=0;" edge="1" parent="1" source="9Q_260vBjeD41utI28-m-218" target="9Q_260vBjeD41utI28-m-204">
          <mxGeometry relative="1" as="geometry">
            <Array as="points">
              <mxPoint x="-1250" y="275" />
              <mxPoint x="-1249" y="530" />
              <mxPoint x="-1284" y="530" />
            </Array>
          </mxGeometry>
        </mxCell>
        <mxCell id="9Q_260vBjeD41utI28-m-218" value="&lt;font style=&quot;font-size: 10px;&quot;&gt;GX16 8 pin male&lt;/font&gt;" style="rounded=0;whiteSpace=wrap;html=1;movable=1;resizable=1;rotatable=1;deletable=1;editable=1;locked=0;connectable=1;" vertex="1" parent="1">
          <mxGeometry x="-1309" y="210" width="170" height="20" as="geometry" />
        </mxCell>
        <mxCell id="9Q_260vBjeD41utI28-m-256" style="edgeStyle=orthogonalEdgeStyle;rounded=0;orthogonalLoop=1;jettySize=auto;html=1;exitX=0.449;exitY=0.002;exitDx=0;exitDy=0;entryX=0.75;entryY=1;entryDx=0;entryDy=0;endArrow=none;endFill=0;exitPerimeter=0;" edge="1" parent="1" source="9Q_260vBjeD41utI28-m-219" target="9Q_260vBjeD41utI28-m-204">
          <mxGeometry relative="1" as="geometry">
            <Array as="points">
              <mxPoint x="-1233" y="550" />
              <mxPoint x="-1276" y="550" />
            </Array>
          </mxGeometry>
        </mxCell>
        <mxCell id="9Q_260vBjeD41utI28-m-266" value="GND&lt;div style=&quot;font-size: 8px;&quot;&gt;PSU2&lt;/div&gt;" style="edgeLabel;html=1;align=center;verticalAlign=middle;resizable=0;points=[];fontSize=8;" vertex="1" connectable="0" parent="9Q_260vBjeD41utI28-m-256">
          <mxGeometry x="-0.13" y="1" relative="1" as="geometry">
            <mxPoint x="2" y="1" as="offset" />
          </mxGeometry>
        </mxCell>
        <mxCell id="9Q_260vBjeD41utI28-m-259" style="edgeStyle=orthogonalEdgeStyle;rounded=0;orthogonalLoop=1;jettySize=auto;html=1;exitX=0.87;exitY=0.085;exitDx=0;exitDy=0;entryX=0.867;entryY=1.031;entryDx=0;entryDy=0;endArrow=none;endFill=0;exitPerimeter=0;entryPerimeter=0;" edge="1" parent="1" source="9Q_260vBjeD41utI28-m-219" target="9Q_260vBjeD41utI28-m-218">
          <mxGeometry relative="1" as="geometry" />
        </mxCell>
        <mxCell id="9Q_260vBjeD41utI28-m-264" value="GND" style="edgeLabel;html=1;align=center;verticalAlign=middle;resizable=0;points=[];fontSize=8;" vertex="1" connectable="0" parent="9Q_260vBjeD41utI28-m-259">
          <mxGeometry x="0.0875" y="2" relative="1" as="geometry">
            <mxPoint as="offset" />
          </mxGeometry>
        </mxCell>
        <mxCell id="9Q_260vBjeD41utI28-m-219" value="&lt;font style=&quot;font-size: 10px;&quot;&gt;GX16 8 pin female&lt;/font&gt;" style="rounded=0;whiteSpace=wrap;html=1;movable=1;resizable=1;rotatable=1;deletable=1;editable=1;locked=0;connectable=1;" vertex="1" parent="1">
          <mxGeometry x="-1309" y="635.84" width="170" height="20" as="geometry" />
        </mxCell>
        <mxCell id="9Q_260vBjeD41utI28-m-249" style="edgeStyle=orthogonalEdgeStyle;rounded=0;orthogonalLoop=1;jettySize=auto;html=1;exitX=0.25;exitY=1;exitDx=0;exitDy=0;entryX=0.304;entryY=0.031;entryDx=0;entryDy=0;entryPerimeter=0;fillColor=#e51400;strokeColor=#B20000;endArrow=none;endFill=0;startArrow=none;startFill=0;" edge="1" parent="1" source="9Q_260vBjeD41utI28-m-204" target="9Q_260vBjeD41utI28-m-219">
          <mxGeometry relative="1" as="geometry">
            <Array as="points">
              <mxPoint x="-1291" y="580" />
              <mxPoint x="-1257" y="580" />
            </Array>
          </mxGeometry>
        </mxCell>
        <mxCell id="9Q_260vBjeD41utI28-m-269" value="Power&lt;br style=&quot;font-size: 8px;&quot;&gt;&lt;div style=&quot;font-size: 8px;&quot;&gt;PSU2&lt;/div&gt;" style="edgeLabel;html=1;align=center;verticalAlign=middle;resizable=0;points=[];fontSize=8;" vertex="1" connectable="0" parent="9Q_260vBjeD41utI28-m-249">
          <mxGeometry x="-0.07" y="-8" relative="1" as="geometry">
            <mxPoint x="4" y="-11" as="offset" />
          </mxGeometry>
        </mxCell>
        <mxCell id="9Q_260vBjeD41utI28-m-253" value="LED STRIP METAL BASE" style="text;html=1;align=left;verticalAlign=middle;whiteSpace=wrap;rounded=0;fontSize=10;" vertex="1" parent="1">
          <mxGeometry x="-1597" y="650" width="160" height="30" as="geometry" />
        </mxCell>
        <mxCell id="9Q_260vBjeD41utI28-m-257" style="edgeStyle=orthogonalEdgeStyle;rounded=0;orthogonalLoop=1;jettySize=auto;html=1;exitX=0.75;exitY=1;exitDx=0;exitDy=0;entryX=0.37;entryY=0.032;entryDx=0;entryDy=0;entryPerimeter=0;endArrow=none;endFill=0;startArrow=none;startFill=0;fontSize=8;" edge="1" parent="1" source="9Q_260vBjeD41utI28-m-205" target="9Q_260vBjeD41utI28-m-219">
          <mxGeometry relative="1" as="geometry">
            <Array as="points">
              <mxPoint x="-1316" y="560" />
              <mxPoint x="-1246" y="560" />
            </Array>
          </mxGeometry>
        </mxCell>
        <mxCell id="9Q_260vBjeD41utI28-m-268" value="GND&lt;div style=&quot;font-size: 8px;&quot;&gt;PSU1A&lt;/div&gt;" style="edgeLabel;html=1;align=center;verticalAlign=middle;resizable=0;points=[];fontSize=8;" vertex="1" connectable="0" parent="9Q_260vBjeD41utI28-m-257">
          <mxGeometry x="0.6335" y="1" relative="1" as="geometry">
            <mxPoint as="offset" />
          </mxGeometry>
        </mxCell>
        <mxCell id="9Q_260vBjeD41utI28-m-260" style="edgeStyle=orthogonalEdgeStyle;rounded=0;orthogonalLoop=1;jettySize=auto;html=1;exitX=0.829;exitY=0.003;exitDx=0;exitDy=0;exitPerimeter=0;endArrow=none;endFill=0;" edge="1" parent="1" source="9Q_260vBjeD41utI28-m-219">
          <mxGeometry relative="1" as="geometry">
            <mxPoint x="-1191" y="230" as="targetPoint" />
            <Array as="points">
              <mxPoint x="-1191" y="636" />
            </Array>
          </mxGeometry>
        </mxCell>
        <mxCell id="9Q_260vBjeD41utI28-m-265" value="GND&lt;div&gt;PSU1B&lt;/div&gt;" style="edgeLabel;html=1;align=center;verticalAlign=middle;resizable=0;points=[];fontSize=8;" vertex="1" connectable="0" parent="9Q_260vBjeD41utI28-m-260">
          <mxGeometry x="-0.2178" relative="1" as="geometry">
            <mxPoint x="5" y="-101" as="offset" />
          </mxGeometry>
        </mxCell>
        <mxCell id="9Q_260vBjeD41utI28-m-261" style="edgeStyle=orthogonalEdgeStyle;rounded=0;orthogonalLoop=1;jettySize=auto;html=1;exitX=0.642;exitY=-0.043;exitDx=0;exitDy=0;entryX=0.641;entryY=1.021;entryDx=0;entryDy=0;entryPerimeter=0;exitPerimeter=0;fillColor=#e51400;strokeColor=#B20000;endArrow=none;endFill=0;" edge="1" parent="1" source="9Q_260vBjeD41utI28-m-219" target="9Q_260vBjeD41utI28-m-218">
          <mxGeometry relative="1" as="geometry" />
        </mxCell>
        <mxCell id="9Q_260vBjeD41utI28-m-263" value="Power&lt;div style=&quot;font-size: 8px;&quot;&gt;PSU1B&lt;/div&gt;" style="edgeLabel;html=1;align=center;verticalAlign=middle;resizable=0;points=[];fontSize=8;" vertex="1" connectable="0" parent="9Q_260vBjeD41utI28-m-261">
          <mxGeometry x="0.3559" relative="1" as="geometry">
            <mxPoint x="-6" y="8" as="offset" />
          </mxGeometry>
        </mxCell>
        <mxCell id="9Q_260vBjeD41utI28-m-273" value="DATA&lt;div style=&quot;font-size: 8px;&quot;&gt;OUT&lt;/div&gt;" style="edgeLabel;html=1;align=center;verticalAlign=middle;resizable=0;points=[];fontSize=8;" vertex="1" connectable="0" parent="1">
          <mxGeometry x="-1228.9823618625865" y="431.39142907522034" as="geometry">
            <mxPoint x="-24" y="-103" as="offset" />
          </mxGeometry>
        </mxCell>
        <mxCell id="9Q_260vBjeD41utI28-m-594" value="" style="ellipse;whiteSpace=wrap;html=1;aspect=fixed;" vertex="1" parent="1">
          <mxGeometry x="-1094.8600000000001" y="502.27" width="35.433" height="35.43" as="geometry" />
        </mxCell>
        <mxCell id="9Q_260vBjeD41utI28-m-595" value="" style="ellipse;whiteSpace=wrap;html=1;aspect=fixed;" vertex="1" parent="1">
          <mxGeometry x="-1078.64" y="518.48" width="3" height="3" as="geometry" />
        </mxCell>
        <mxCell id="9Q_260vBjeD41utI28-m-596" value="" style="ellipse;whiteSpace=wrap;html=1;aspect=fixed;" vertex="1" parent="1">
          <mxGeometry x="-1085.95" y="511.16999999999996" width="3" height="3" as="geometry" />
        </mxCell>
        <mxCell id="9Q_260vBjeD41utI28-m-597" value="" style="ellipse;whiteSpace=wrap;html=1;aspect=fixed;" vertex="1" parent="1">
          <mxGeometry x="-1085.45" y="526.49" width="3" height="3" as="geometry" />
        </mxCell>
        <mxCell id="9Q_260vBjeD41utI28-m-598" value="" style="ellipse;whiteSpace=wrap;html=1;aspect=fixed;" vertex="1" parent="1">
          <mxGeometry x="-1088.95" y="519.49" width="3" height="3" as="geometry" />
        </mxCell>
        <mxCell id="9Q_260vBjeD41utI28-m-599" value="" style="ellipse;whiteSpace=wrap;html=1;aspect=fixed;" vertex="1" parent="1">
          <mxGeometry x="-1071.95" y="511.16999999999996" width="3" height="3" as="geometry" />
        </mxCell>
        <mxCell id="9Q_260vBjeD41utI28-m-600" value="" style="ellipse;whiteSpace=wrap;html=1;aspect=fixed;" vertex="1" parent="1">
          <mxGeometry x="-1067.95" y="519.49" width="3" height="3" as="geometry" />
        </mxCell>
        <mxCell id="9Q_260vBjeD41utI28-m-601" value="" style="ellipse;whiteSpace=wrap;html=1;aspect=fixed;" vertex="1" parent="1">
          <mxGeometry x="-1071.45" y="526.49" width="3" height="3" as="geometry" />
        </mxCell>
        <mxCell id="9Q_260vBjeD41utI28-m-602" value="1" style="text;html=1;strokeColor=none;fillColor=none;align=center;verticalAlign=middle;whiteSpace=wrap;rounded=0;fontSize=3;" vertex="1" parent="1">
          <mxGeometry x="-1092.95" y="509.16999999999996" width="10" height="5" as="geometry" />
        </mxCell>
        <mxCell id="9Q_260vBjeD41utI28-m-603" value="2" style="text;html=1;strokeColor=none;fillColor=none;align=center;verticalAlign=middle;whiteSpace=wrap;rounded=0;fontSize=3;" vertex="1" parent="1">
          <mxGeometry x="-1095.95" y="519.49" width="10" height="5" as="geometry" />
        </mxCell>
        <mxCell id="9Q_260vBjeD41utI28-m-604" value="3" style="text;html=1;strokeColor=none;fillColor=none;align=center;verticalAlign=middle;whiteSpace=wrap;rounded=0;fontSize=3;" vertex="1" parent="1">
          <mxGeometry x="-1092.45" y="526.49" width="10" height="5" as="geometry" />
        </mxCell>
        <mxCell id="9Q_260vBjeD41utI28-m-605" value="5" style="text;html=1;strokeColor=none;fillColor=none;align=center;verticalAlign=middle;whiteSpace=wrap;rounded=0;fontSize=3;" vertex="1" parent="1">
          <mxGeometry x="-1070.45" y="526.49" width="10" height="5" as="geometry" />
        </mxCell>
        <mxCell id="9Q_260vBjeD41utI28-m-606" value="6" style="text;html=1;strokeColor=none;fillColor=none;align=center;verticalAlign=middle;whiteSpace=wrap;rounded=0;fontSize=3;" vertex="1" parent="1">
          <mxGeometry x="-1067.95" y="519.49" width="10" height="5" as="geometry" />
        </mxCell>
        <mxCell id="9Q_260vBjeD41utI28-m-607" value="7" style="text;html=1;strokeColor=none;fillColor=none;align=center;verticalAlign=middle;whiteSpace=wrap;rounded=0;fontSize=3;" vertex="1" parent="1">
          <mxGeometry x="-1071.45" y="509.16999999999996" width="10" height="5" as="geometry" />
        </mxCell>
        <mxCell id="9Q_260vBjeD41utI28-m-608" value="8" style="text;html=1;strokeColor=none;fillColor=none;align=center;verticalAlign=middle;whiteSpace=wrap;rounded=0;fontSize=3;" vertex="1" parent="1">
          <mxGeometry x="-1081.95" y="514.49" width="10" height="5" as="geometry" />
        </mxCell>
        <mxCell id="9Q_260vBjeD41utI28-m-609" value="" style="verticalLabelPosition=bottom;verticalAlign=top;html=1;shape=mxgraph.basic.half_circle;fontSize=3;movable=1;resizable=1;rotatable=1;deletable=1;editable=1;connectable=1;fixDash=0;shadow=0;sketch=0;" vertex="1" parent="1">
          <mxGeometry x="-1081.85" y="503.16999999999996" width="9.41" height="5" as="geometry" />
        </mxCell>
        <mxCell id="9Q_260vBjeD41utI28-m-617" value="GX16-8&#xa;Power box" style="shape=table;startSize=30;container=1;collapsible=0;childLayout=tableLayout;fixedRows=1;rowLines=0;fontStyle=1;shadow=0;sketch=0;strokeColor=#000000;fontSize=3;" vertex="1" parent="1">
          <mxGeometry x="-1111.45" y="542.9" width="69" height="112.1" as="geometry" />
        </mxCell>
        <mxCell id="9Q_260vBjeD41utI28-m-618" value="" style="shape=tableRow;horizontal=0;startSize=0;swimlaneHead=0;swimlaneBody=0;top=0;left=0;bottom=0;right=0;collapsible=0;dropTarget=0;fillColor=none;points=[[0,0.5],[1,0.5]];portConstraint=eastwest;shadow=0;sketch=0;strokeColor=#000000;fontSize=3;" vertex="1" parent="9Q_260vBjeD41utI28-m-617">
          <mxGeometry y="30" width="69" height="10" as="geometry" />
        </mxCell>
        <mxCell id="9Q_260vBjeD41utI28-m-619" value="1" style="shape=partialRectangle;html=1;whiteSpace=wrap;connectable=0;fillColor=none;top=0;left=0;bottom=0;right=0;overflow=hidden;pointerEvents=1;shadow=0;sketch=0;strokeColor=#000000;fontSize=3;" vertex="1" parent="9Q_260vBjeD41utI28-m-618">
          <mxGeometry width="15" height="10" as="geometry">
            <mxRectangle width="15" height="10" as="alternateBounds" />
          </mxGeometry>
        </mxCell>
        <mxCell id="9Q_260vBjeD41utI28-m-620" value="Power (PSU1a)" style="shape=partialRectangle;html=1;whiteSpace=wrap;connectable=0;fillColor=none;top=0;left=0;bottom=0;right=0;align=left;spacingLeft=6;overflow=hidden;shadow=0;sketch=0;strokeColor=#000000;fontSize=3;" vertex="1" parent="9Q_260vBjeD41utI28-m-618">
          <mxGeometry x="15" width="54" height="10" as="geometry">
            <mxRectangle width="54" height="10" as="alternateBounds" />
          </mxGeometry>
        </mxCell>
        <mxCell id="9Q_260vBjeD41utI28-m-621" value="" style="shape=tableRow;horizontal=0;startSize=0;swimlaneHead=0;swimlaneBody=0;top=0;left=0;bottom=0;right=0;collapsible=0;dropTarget=0;fillColor=none;points=[[0,0.5],[1,0.5]];portConstraint=eastwest;shadow=0;sketch=0;strokeColor=#000000;fontSize=3;" vertex="1" parent="9Q_260vBjeD41utI28-m-617">
          <mxGeometry y="40" width="69" height="10" as="geometry" />
        </mxCell>
        <mxCell id="9Q_260vBjeD41utI28-m-622" value="2" style="shape=partialRectangle;html=1;whiteSpace=wrap;connectable=0;fillColor=none;top=0;left=0;bottom=0;right=0;overflow=hidden;shadow=0;sketch=0;strokeColor=#000000;fontSize=3;" vertex="1" parent="9Q_260vBjeD41utI28-m-621">
          <mxGeometry width="15" height="10" as="geometry">
            <mxRectangle width="15" height="10" as="alternateBounds" />
          </mxGeometry>
        </mxCell>
        <mxCell id="9Q_260vBjeD41utI28-m-623" value="Power&amp;nbsp;(PSU1b)" style="shape=partialRectangle;html=1;whiteSpace=wrap;connectable=0;fillColor=none;top=0;left=0;bottom=0;right=0;align=left;spacingLeft=6;overflow=hidden;shadow=0;sketch=0;strokeColor=#000000;fontSize=3;" vertex="1" parent="9Q_260vBjeD41utI28-m-621">
          <mxGeometry x="15" width="54" height="10" as="geometry">
            <mxRectangle width="54" height="10" as="alternateBounds" />
          </mxGeometry>
        </mxCell>
        <mxCell id="9Q_260vBjeD41utI28-m-624" value="" style="shape=tableRow;horizontal=0;startSize=0;swimlaneHead=0;swimlaneBody=0;top=0;left=0;bottom=0;right=0;collapsible=0;dropTarget=0;fillColor=none;points=[[0,0.5],[1,0.5]];portConstraint=eastwest;shadow=0;sketch=0;strokeColor=#000000;fontSize=3;" vertex="1" parent="9Q_260vBjeD41utI28-m-617">
          <mxGeometry y="50" width="69" height="10" as="geometry" />
        </mxCell>
        <mxCell id="9Q_260vBjeD41utI28-m-625" value="3" style="shape=partialRectangle;html=1;whiteSpace=wrap;connectable=0;fillColor=none;top=0;left=0;bottom=0;right=0;overflow=hidden;shadow=0;sketch=0;strokeColor=#000000;fontSize=3;" vertex="1" parent="9Q_260vBjeD41utI28-m-624">
          <mxGeometry width="15" height="10" as="geometry">
            <mxRectangle width="15" height="10" as="alternateBounds" />
          </mxGeometry>
        </mxCell>
        <mxCell id="9Q_260vBjeD41utI28-m-626" value="GROUND&amp;nbsp;(PSU1a)" style="shape=partialRectangle;html=1;whiteSpace=wrap;connectable=0;fillColor=none;top=0;left=0;bottom=0;right=0;align=left;spacingLeft=6;overflow=hidden;shadow=0;sketch=0;strokeColor=#000000;fontSize=3;" vertex="1" parent="9Q_260vBjeD41utI28-m-624">
          <mxGeometry x="15" width="54" height="10" as="geometry">
            <mxRectangle width="54" height="10" as="alternateBounds" />
          </mxGeometry>
        </mxCell>
        <mxCell id="9Q_260vBjeD41utI28-m-627" style="shape=tableRow;horizontal=0;startSize=0;swimlaneHead=0;swimlaneBody=0;top=0;left=0;bottom=0;right=0;collapsible=0;dropTarget=0;fillColor=none;points=[[0,0.5],[1,0.5]];portConstraint=eastwest;shadow=0;sketch=0;strokeColor=#000000;fontSize=3;" vertex="1" parent="9Q_260vBjeD41utI28-m-617">
          <mxGeometry y="60" width="69" height="10" as="geometry" />
        </mxCell>
        <mxCell id="9Q_260vBjeD41utI28-m-628" value="4" style="shape=partialRectangle;html=1;whiteSpace=wrap;connectable=0;fillColor=none;top=0;left=0;bottom=0;right=0;overflow=hidden;shadow=0;sketch=0;strokeColor=#000000;fontSize=3;" vertex="1" parent="9Q_260vBjeD41utI28-m-627">
          <mxGeometry width="15" height="10" as="geometry">
            <mxRectangle width="15" height="10" as="alternateBounds" />
          </mxGeometry>
        </mxCell>
        <mxCell id="9Q_260vBjeD41utI28-m-629" value="&lt;span style=&quot;&quot;&gt;GROUND&amp;nbsp;(PSU1b)&lt;/span&gt;" style="shape=partialRectangle;html=1;whiteSpace=wrap;connectable=0;fillColor=none;top=0;left=0;bottom=0;right=0;align=left;spacingLeft=6;overflow=hidden;shadow=0;sketch=0;strokeColor=#000000;fontSize=3;" vertex="1" parent="9Q_260vBjeD41utI28-m-627">
          <mxGeometry x="15" width="54" height="10" as="geometry">
            <mxRectangle width="54" height="10" as="alternateBounds" />
          </mxGeometry>
        </mxCell>
        <mxCell id="9Q_260vBjeD41utI28-m-630" style="shape=tableRow;horizontal=0;startSize=0;swimlaneHead=0;swimlaneBody=0;top=0;left=0;bottom=0;right=0;collapsible=0;dropTarget=0;fillColor=none;points=[[0,0.5],[1,0.5]];portConstraint=eastwest;shadow=0;sketch=0;strokeColor=#000000;fontSize=3;" vertex="1" parent="9Q_260vBjeD41utI28-m-617">
          <mxGeometry y="70" width="69" height="10" as="geometry" />
        </mxCell>
        <mxCell id="9Q_260vBjeD41utI28-m-631" value="5" style="shape=partialRectangle;html=1;whiteSpace=wrap;connectable=0;fillColor=none;top=0;left=0;bottom=0;right=0;overflow=hidden;shadow=0;sketch=0;strokeColor=#000000;fontSize=3;" vertex="1" parent="9Q_260vBjeD41utI28-m-630">
          <mxGeometry width="15" height="10" as="geometry">
            <mxRectangle width="15" height="10" as="alternateBounds" />
          </mxGeometry>
        </mxCell>
        <mxCell id="9Q_260vBjeD41utI28-m-632" value="TX" style="shape=partialRectangle;html=1;whiteSpace=wrap;connectable=0;fillColor=none;top=0;left=0;bottom=0;right=0;align=left;spacingLeft=6;overflow=hidden;shadow=0;sketch=0;strokeColor=#000000;fontSize=3;" vertex="1" parent="9Q_260vBjeD41utI28-m-630">
          <mxGeometry x="15" width="54" height="10" as="geometry">
            <mxRectangle width="54" height="10" as="alternateBounds" />
          </mxGeometry>
        </mxCell>
        <mxCell id="9Q_260vBjeD41utI28-m-633" style="shape=tableRow;horizontal=0;startSize=0;swimlaneHead=0;swimlaneBody=0;top=0;left=0;bottom=0;right=0;collapsible=0;dropTarget=0;fillColor=none;points=[[0,0.5],[1,0.5]];portConstraint=eastwest;shadow=0;sketch=0;strokeColor=#000000;fontSize=3;" vertex="1" parent="9Q_260vBjeD41utI28-m-617">
          <mxGeometry y="80" width="69" height="10" as="geometry" />
        </mxCell>
        <mxCell id="9Q_260vBjeD41utI28-m-634" value="6" style="shape=partialRectangle;html=1;whiteSpace=wrap;connectable=0;fillColor=none;top=0;left=0;bottom=0;right=0;overflow=hidden;shadow=0;sketch=0;strokeColor=#000000;fontSize=3;" vertex="1" parent="9Q_260vBjeD41utI28-m-633">
          <mxGeometry width="15" height="10" as="geometry">
            <mxRectangle width="15" height="10" as="alternateBounds" />
          </mxGeometry>
        </mxCell>
        <mxCell id="9Q_260vBjeD41utI28-m-635" value="GROUND" style="shape=partialRectangle;html=1;whiteSpace=wrap;connectable=0;fillColor=none;top=0;left=0;bottom=0;right=0;align=left;spacingLeft=6;overflow=hidden;shadow=0;sketch=0;strokeColor=#000000;fontSize=3;" vertex="1" parent="9Q_260vBjeD41utI28-m-633">
          <mxGeometry x="15" width="54" height="10" as="geometry">
            <mxRectangle width="54" height="10" as="alternateBounds" />
          </mxGeometry>
        </mxCell>
        <mxCell id="9Q_260vBjeD41utI28-m-636" style="shape=tableRow;horizontal=0;startSize=0;swimlaneHead=0;swimlaneBody=0;top=0;left=0;bottom=0;right=0;collapsible=0;dropTarget=0;fillColor=none;points=[[0,0.5],[1,0.5]];portConstraint=eastwest;shadow=0;sketch=0;strokeColor=#000000;fontSize=3;" vertex="1" parent="9Q_260vBjeD41utI28-m-617">
          <mxGeometry y="90" width="69" height="10" as="geometry" />
        </mxCell>
        <mxCell id="9Q_260vBjeD41utI28-m-637" value="7" style="shape=partialRectangle;html=1;whiteSpace=wrap;connectable=0;fillColor=none;top=0;left=0;bottom=0;right=0;overflow=hidden;shadow=0;sketch=0;strokeColor=#000000;fontSize=3;" vertex="1" parent="9Q_260vBjeD41utI28-m-636">
          <mxGeometry width="15" height="10" as="geometry">
            <mxRectangle width="15" height="10" as="alternateBounds" />
          </mxGeometry>
        </mxCell>
        <mxCell id="9Q_260vBjeD41utI28-m-638" value="Power (PSU2)" style="shape=partialRectangle;html=1;whiteSpace=wrap;connectable=0;fillColor=none;top=0;left=0;bottom=0;right=0;align=left;spacingLeft=6;overflow=hidden;shadow=0;sketch=0;strokeColor=#000000;fontSize=3;" vertex="1" parent="9Q_260vBjeD41utI28-m-636">
          <mxGeometry x="15" width="54" height="10" as="geometry">
            <mxRectangle width="54" height="10" as="alternateBounds" />
          </mxGeometry>
        </mxCell>
        <mxCell id="9Q_260vBjeD41utI28-m-639" value="" style="shape=tableRow;horizontal=0;startSize=0;swimlaneHead=0;swimlaneBody=0;fillColor=none;collapsible=0;dropTarget=0;points=[[0,0.5],[1,0.5]];portConstraint=eastwest;top=0;left=0;right=0;bottom=0;" vertex="1" parent="9Q_260vBjeD41utI28-m-617">
          <mxGeometry y="100" width="69" height="12" as="geometry" />
        </mxCell>
        <mxCell id="9Q_260vBjeD41utI28-m-640" value="8" style="shape=partialRectangle;connectable=0;fillColor=none;top=0;left=0;bottom=0;right=0;fontStyle=0;overflow=hidden;fontSize=3;" vertex="1" parent="9Q_260vBjeD41utI28-m-639">
          <mxGeometry width="15" height="12" as="geometry">
            <mxRectangle width="15" height="12" as="alternateBounds" />
          </mxGeometry>
        </mxCell>
        <mxCell id="9Q_260vBjeD41utI28-m-641" value="GROUND (PSU2)" style="shape=partialRectangle;connectable=0;fillColor=none;top=0;left=0;bottom=0;right=0;align=left;spacingLeft=6;fontStyle=0;overflow=hidden;fontSize=3;" vertex="1" parent="9Q_260vBjeD41utI28-m-639">
          <mxGeometry x="15" width="54" height="12" as="geometry">
            <mxRectangle width="54" height="12" as="alternateBounds" />
          </mxGeometry>
        </mxCell>
        <mxCell id="9Q_260vBjeD41utI28-m-649" value="GX16-8" style="text;strokeColor=none;fillColor=none;html=1;fontSize=6;fontStyle=1;verticalAlign=middle;align=center;shadow=0;sketch=0;" vertex="1" parent="1">
          <mxGeometry x="-1090.29" y="492.90999999999997" width="26.28" height="9.36" as="geometry" />
        </mxCell>
        <mxCell id="9Q_260vBjeD41utI28-m-651" value="" style="ellipse;whiteSpace=wrap;html=1;aspect=fixed;" vertex="1" parent="1">
          <mxGeometry x="-1078.54" y="528.49" width="3" height="3" as="geometry" />
        </mxCell>
        <mxCell id="9Q_260vBjeD41utI28-m-652" value="4" style="text;html=1;strokeColor=none;fillColor=none;align=center;verticalAlign=middle;whiteSpace=wrap;rounded=0;fontSize=3;" vertex="1" parent="1">
          <mxGeometry x="-1081.45" y="531.49" width="10" height="5" as="geometry" />
        </mxCell>
        <mxCell id="9Q_260vBjeD41utI28-m-653" value="Cable colors" style="shape=table;startSize=30;container=1;collapsible=0;childLayout=tableLayout;fixedRows=1;rowLines=0;fontStyle=1;shadow=0;sketch=0;strokeColor=#000000;fontSize=3;" vertex="1" parent="1">
          <mxGeometry x="-1111.65" y="390" width="69" height="70.1" as="geometry" />
        </mxCell>
        <mxCell id="9Q_260vBjeD41utI28-m-654" value="" style="shape=tableRow;horizontal=0;startSize=0;swimlaneHead=0;swimlaneBody=0;top=0;left=0;bottom=0;right=0;collapsible=0;dropTarget=0;fillColor=none;points=[[0,0.5],[1,0.5]];portConstraint=eastwest;shadow=0;sketch=0;strokeColor=#000000;fontSize=3;" vertex="1" parent="9Q_260vBjeD41utI28-m-653">
          <mxGeometry y="30" width="69" height="10" as="geometry" />
        </mxCell>
        <mxCell id="9Q_260vBjeD41utI28-m-655" value="V+" style="shape=partialRectangle;html=1;whiteSpace=wrap;connectable=0;fillColor=none;top=0;left=0;bottom=0;right=0;overflow=hidden;pointerEvents=1;shadow=0;sketch=0;strokeColor=#000000;fontSize=3;" vertex="1" parent="9Q_260vBjeD41utI28-m-654">
          <mxGeometry width="15" height="10" as="geometry">
            <mxRectangle width="15" height="10" as="alternateBounds" />
          </mxGeometry>
        </mxCell>
        <mxCell id="9Q_260vBjeD41utI28-m-656" value="RED" style="shape=partialRectangle;html=1;whiteSpace=wrap;connectable=0;fillColor=#e51400;top=0;left=0;bottom=0;right=0;align=left;spacingLeft=6;overflow=hidden;shadow=0;sketch=0;strokeColor=inherit;fontSize=3;fontColor=#ffffff;" vertex="1" parent="9Q_260vBjeD41utI28-m-654">
          <mxGeometry x="15" width="54" height="10" as="geometry">
            <mxRectangle width="54" height="10" as="alternateBounds" />
          </mxGeometry>
        </mxCell>
        <mxCell id="9Q_260vBjeD41utI28-m-657" value="" style="shape=tableRow;horizontal=0;startSize=0;swimlaneHead=0;swimlaneBody=0;top=0;left=0;bottom=0;right=0;collapsible=0;dropTarget=0;fillColor=none;points=[[0,0.5],[1,0.5]];portConstraint=eastwest;shadow=0;sketch=0;strokeColor=#000000;fontSize=3;" vertex="1" parent="9Q_260vBjeD41utI28-m-653">
          <mxGeometry y="40" width="69" height="10" as="geometry" />
        </mxCell>
        <mxCell id="9Q_260vBjeD41utI28-m-658" value="Gr / V-" style="shape=partialRectangle;html=1;whiteSpace=wrap;connectable=0;fillColor=none;top=0;left=0;bottom=0;right=0;overflow=hidden;shadow=0;sketch=0;strokeColor=#000000;fontSize=3;" vertex="1" parent="9Q_260vBjeD41utI28-m-657">
          <mxGeometry width="15" height="10" as="geometry">
            <mxRectangle width="15" height="10" as="alternateBounds" />
          </mxGeometry>
        </mxCell>
        <mxCell id="9Q_260vBjeD41utI28-m-659" value="BLACK" style="shape=partialRectangle;html=1;whiteSpace=wrap;connectable=0;fillColor=#000000;top=0;left=0;bottom=0;right=0;align=left;spacingLeft=6;overflow=hidden;shadow=0;sketch=0;strokeColor=inherit;fontSize=3;fontColor=#FFFFFF;" vertex="1" parent="9Q_260vBjeD41utI28-m-657">
          <mxGeometry x="15" width="54" height="10" as="geometry">
            <mxRectangle width="54" height="10" as="alternateBounds" />
          </mxGeometry>
        </mxCell>
        <mxCell id="9Q_260vBjeD41utI28-m-660" value="" style="shape=tableRow;horizontal=0;startSize=0;swimlaneHead=0;swimlaneBody=0;top=0;left=0;bottom=0;right=0;collapsible=0;dropTarget=0;fillColor=none;points=[[0,0.5],[1,0.5]];portConstraint=eastwest;shadow=0;sketch=0;strokeColor=#000000;fontSize=3;" vertex="1" parent="9Q_260vBjeD41utI28-m-653">
          <mxGeometry y="50" width="69" height="10" as="geometry" />
        </mxCell>
        <mxCell id="9Q_260vBjeD41utI28-m-661" value="TX" style="shape=partialRectangle;html=1;whiteSpace=wrap;connectable=0;fillColor=none;top=0;left=0;bottom=0;right=0;overflow=hidden;shadow=0;sketch=0;strokeColor=#000000;fontSize=3;" vertex="1" parent="9Q_260vBjeD41utI28-m-660">
          <mxGeometry width="15" height="10" as="geometry">
            <mxRectangle width="15" height="10" as="alternateBounds" />
          </mxGeometry>
        </mxCell>
        <mxCell id="9Q_260vBjeD41utI28-m-662" value="GREEN" style="shape=partialRectangle;html=1;whiteSpace=wrap;connectable=0;fillColor=#00CC66;top=0;left=0;bottom=0;right=0;align=left;spacingLeft=6;overflow=hidden;shadow=0;sketch=0;strokeColor=inherit;fontSize=3;" vertex="1" parent="9Q_260vBjeD41utI28-m-660">
          <mxGeometry x="15" width="54" height="10" as="geometry">
            <mxRectangle width="54" height="10" as="alternateBounds" />
          </mxGeometry>
        </mxCell>
        <mxCell id="9Q_260vBjeD41utI28-m-663" value="" style="shape=tableRow;horizontal=0;startSize=0;swimlaneHead=0;swimlaneBody=0;fillColor=none;collapsible=0;dropTarget=0;points=[[0,0.5],[1,0.5]];portConstraint=eastwest;top=0;left=0;right=0;bottom=0;" vertex="1" parent="9Q_260vBjeD41utI28-m-653">
          <mxGeometry y="60" width="69" height="10" as="geometry" />
        </mxCell>
        <mxCell id="9Q_260vBjeD41utI28-m-664" value="LED data" style="shape=partialRectangle;connectable=0;fillColor=none;top=0;left=0;bottom=0;right=0;fontStyle=0;overflow=hidden;fontSize=3;" vertex="1" parent="9Q_260vBjeD41utI28-m-663">
          <mxGeometry width="15" height="10" as="geometry">
            <mxRectangle width="15" height="10" as="alternateBounds" />
          </mxGeometry>
        </mxCell>
        <mxCell id="9Q_260vBjeD41utI28-m-665" value="BLUE" style="shape=partialRectangle;connectable=0;fillColor=#3333FF;top=0;left=0;bottom=0;right=0;align=left;spacingLeft=6;fontStyle=0;overflow=hidden;fontSize=3;strokeColor=inherit;" vertex="1" parent="9Q_260vBjeD41utI28-m-663">
          <mxGeometry x="15" width="54" height="10" as="geometry">
            <mxRectangle width="54" height="10" as="alternateBounds" />
          </mxGeometry>
        </mxCell>
        <mxCell id="9Q_260vBjeD41utI28-m-666" value="" style="ellipse;whiteSpace=wrap;html=1;aspect=fixed;" vertex="1" parent="1">
          <mxGeometry x="-1094.3600000000001" y="229.36" width="35.433" height="35.43" as="geometry" />
        </mxCell>
        <mxCell id="9Q_260vBjeD41utI28-m-667" value="" style="ellipse;whiteSpace=wrap;html=1;aspect=fixed;" vertex="1" parent="1">
          <mxGeometry x="-1078.14" y="245.57" width="3" height="3" as="geometry" />
        </mxCell>
        <mxCell id="9Q_260vBjeD41utI28-m-668" value="" style="ellipse;whiteSpace=wrap;html=1;aspect=fixed;" vertex="1" parent="1">
          <mxGeometry x="-1085.45" y="238.26" width="3" height="3" as="geometry" />
        </mxCell>
        <mxCell id="9Q_260vBjeD41utI28-m-669" value="" style="ellipse;whiteSpace=wrap;html=1;aspect=fixed;" vertex="1" parent="1">
          <mxGeometry x="-1084.95" y="253.58000000000004" width="3" height="3" as="geometry" />
        </mxCell>
        <mxCell id="9Q_260vBjeD41utI28-m-670" value="" style="ellipse;whiteSpace=wrap;html=1;aspect=fixed;" vertex="1" parent="1">
          <mxGeometry x="-1088.45" y="246.58000000000004" width="3" height="3" as="geometry" />
        </mxCell>
        <mxCell id="9Q_260vBjeD41utI28-m-671" value="" style="ellipse;whiteSpace=wrap;html=1;aspect=fixed;" vertex="1" parent="1">
          <mxGeometry x="-1071.45" y="238.26" width="3" height="3" as="geometry" />
        </mxCell>
        <mxCell id="9Q_260vBjeD41utI28-m-672" value="" style="ellipse;whiteSpace=wrap;html=1;aspect=fixed;" vertex="1" parent="1">
          <mxGeometry x="-1067.45" y="246.58000000000004" width="3" height="3" as="geometry" />
        </mxCell>
        <mxCell id="9Q_260vBjeD41utI28-m-673" value="" style="ellipse;whiteSpace=wrap;html=1;aspect=fixed;" vertex="1" parent="1">
          <mxGeometry x="-1070.95" y="253.58000000000004" width="3" height="3" as="geometry" />
        </mxCell>
        <mxCell id="9Q_260vBjeD41utI28-m-674" value="1" style="text;html=1;strokeColor=none;fillColor=none;align=center;verticalAlign=middle;whiteSpace=wrap;rounded=0;fontSize=3;" vertex="1" parent="1">
          <mxGeometry x="-1092.45" y="236.26" width="10" height="5" as="geometry" />
        </mxCell>
        <mxCell id="9Q_260vBjeD41utI28-m-675" value="2" style="text;html=1;strokeColor=none;fillColor=none;align=center;verticalAlign=middle;whiteSpace=wrap;rounded=0;fontSize=3;" vertex="1" parent="1">
          <mxGeometry x="-1095.45" y="246.58000000000004" width="10" height="5" as="geometry" />
        </mxCell>
        <mxCell id="9Q_260vBjeD41utI28-m-676" value="3" style="text;html=1;strokeColor=none;fillColor=none;align=center;verticalAlign=middle;whiteSpace=wrap;rounded=0;fontSize=3;" vertex="1" parent="1">
          <mxGeometry x="-1091.95" y="253.58000000000004" width="10" height="5" as="geometry" />
        </mxCell>
        <mxCell id="9Q_260vBjeD41utI28-m-677" value="5" style="text;html=1;strokeColor=none;fillColor=none;align=center;verticalAlign=middle;whiteSpace=wrap;rounded=0;fontSize=3;" vertex="1" parent="1">
          <mxGeometry x="-1069.95" y="253.58000000000004" width="10" height="5" as="geometry" />
        </mxCell>
        <mxCell id="9Q_260vBjeD41utI28-m-678" value="6" style="text;html=1;strokeColor=none;fillColor=none;align=center;verticalAlign=middle;whiteSpace=wrap;rounded=0;fontSize=3;" vertex="1" parent="1">
          <mxGeometry x="-1067.45" y="246.58000000000004" width="10" height="5" as="geometry" />
        </mxCell>
        <mxCell id="9Q_260vBjeD41utI28-m-679" value="7" style="text;html=1;strokeColor=none;fillColor=none;align=center;verticalAlign=middle;whiteSpace=wrap;rounded=0;fontSize=3;" vertex="1" parent="1">
          <mxGeometry x="-1070.95" y="236.26" width="10" height="5" as="geometry" />
        </mxCell>
        <mxCell id="9Q_260vBjeD41utI28-m-680" value="8" style="text;html=1;strokeColor=none;fillColor=none;align=center;verticalAlign=middle;whiteSpace=wrap;rounded=0;fontSize=3;" vertex="1" parent="1">
          <mxGeometry x="-1081.45" y="241.58000000000004" width="10" height="5" as="geometry" />
        </mxCell>
        <mxCell id="9Q_260vBjeD41utI28-m-681" value="" style="verticalLabelPosition=bottom;verticalAlign=top;html=1;shape=mxgraph.basic.half_circle;fontSize=3;movable=1;resizable=1;rotatable=1;deletable=1;editable=1;connectable=1;fixDash=0;shadow=0;sketch=0;" vertex="1" parent="1">
          <mxGeometry x="-1081.3500000000001" y="230.26" width="9.41" height="5" as="geometry" />
        </mxCell>
        <mxCell id="9Q_260vBjeD41utI28-m-682" value="GX16-8&#xa;TOP extender" style="shape=table;startSize=30;container=1;collapsible=0;childLayout=tableLayout;fixedRows=1;rowLines=0;fontStyle=1;shadow=0;sketch=0;strokeColor=#000000;fontSize=3;" vertex="1" parent="1">
          <mxGeometry x="-1110.95" y="269.99" width="69" height="107.1" as="geometry" />
        </mxCell>
        <mxCell id="9Q_260vBjeD41utI28-m-683" value="" style="shape=tableRow;horizontal=0;startSize=0;swimlaneHead=0;swimlaneBody=0;top=0;left=0;bottom=0;right=0;collapsible=0;dropTarget=0;fillColor=none;points=[[0,0.5],[1,0.5]];portConstraint=eastwest;shadow=0;sketch=0;strokeColor=#000000;fontSize=3;" vertex="1" parent="9Q_260vBjeD41utI28-m-682">
          <mxGeometry y="30" width="69" height="10" as="geometry" />
        </mxCell>
        <mxCell id="9Q_260vBjeD41utI28-m-684" value="1" style="shape=partialRectangle;html=1;whiteSpace=wrap;connectable=0;fillColor=none;top=0;left=0;bottom=0;right=0;overflow=hidden;pointerEvents=1;shadow=0;sketch=0;strokeColor=#000000;fontSize=3;" vertex="1" parent="9Q_260vBjeD41utI28-m-683">
          <mxGeometry width="15" height="10" as="geometry">
            <mxRectangle width="15" height="10" as="alternateBounds" />
          </mxGeometry>
        </mxCell>
        <mxCell id="9Q_260vBjeD41utI28-m-685" value="x" style="shape=partialRectangle;html=1;whiteSpace=wrap;connectable=0;fillColor=none;top=0;left=0;bottom=0;right=0;align=left;spacingLeft=6;overflow=hidden;shadow=0;sketch=0;strokeColor=#000000;fontSize=3;" vertex="1" parent="9Q_260vBjeD41utI28-m-683">
          <mxGeometry x="15" width="54" height="10" as="geometry">
            <mxRectangle width="54" height="10" as="alternateBounds" />
          </mxGeometry>
        </mxCell>
        <mxCell id="9Q_260vBjeD41utI28-m-686" value="" style="shape=tableRow;horizontal=0;startSize=0;swimlaneHead=0;swimlaneBody=0;top=0;left=0;bottom=0;right=0;collapsible=0;dropTarget=0;fillColor=none;points=[[0,0.5],[1,0.5]];portConstraint=eastwest;shadow=0;sketch=0;strokeColor=#000000;fontSize=3;" vertex="1" parent="9Q_260vBjeD41utI28-m-682">
          <mxGeometry y="40" width="69" height="10" as="geometry" />
        </mxCell>
        <mxCell id="9Q_260vBjeD41utI28-m-687" value="2" style="shape=partialRectangle;html=1;whiteSpace=wrap;connectable=0;fillColor=none;top=0;left=0;bottom=0;right=0;overflow=hidden;shadow=0;sketch=0;strokeColor=#000000;fontSize=3;" vertex="1" parent="9Q_260vBjeD41utI28-m-686">
          <mxGeometry width="15" height="10" as="geometry">
            <mxRectangle width="15" height="10" as="alternateBounds" />
          </mxGeometry>
        </mxCell>
        <mxCell id="9Q_260vBjeD41utI28-m-688" value="Power&amp;nbsp;(PSU1b)" style="shape=partialRectangle;html=1;whiteSpace=wrap;connectable=0;fillColor=none;top=0;left=0;bottom=0;right=0;align=left;spacingLeft=6;overflow=hidden;shadow=0;sketch=0;strokeColor=#000000;fontSize=3;" vertex="1" parent="9Q_260vBjeD41utI28-m-686">
          <mxGeometry x="15" width="54" height="10" as="geometry">
            <mxRectangle width="54" height="10" as="alternateBounds" />
          </mxGeometry>
        </mxCell>
        <mxCell id="9Q_260vBjeD41utI28-m-689" value="" style="shape=tableRow;horizontal=0;startSize=0;swimlaneHead=0;swimlaneBody=0;top=0;left=0;bottom=0;right=0;collapsible=0;dropTarget=0;fillColor=none;points=[[0,0.5],[1,0.5]];portConstraint=eastwest;shadow=0;sketch=0;strokeColor=#000000;fontSize=3;" vertex="1" parent="9Q_260vBjeD41utI28-m-682">
          <mxGeometry y="50" width="69" height="10" as="geometry" />
        </mxCell>
        <mxCell id="9Q_260vBjeD41utI28-m-690" value="3" style="shape=partialRectangle;html=1;whiteSpace=wrap;connectable=0;fillColor=none;top=0;left=0;bottom=0;right=0;overflow=hidden;shadow=0;sketch=0;strokeColor=#000000;fontSize=3;" vertex="1" parent="9Q_260vBjeD41utI28-m-689">
          <mxGeometry width="15" height="10" as="geometry">
            <mxRectangle width="15" height="10" as="alternateBounds" />
          </mxGeometry>
        </mxCell>
        <mxCell id="9Q_260vBjeD41utI28-m-691" value="DATA OUT" style="shape=partialRectangle;html=1;whiteSpace=wrap;connectable=0;fillColor=none;top=0;left=0;bottom=0;right=0;align=left;spacingLeft=6;overflow=hidden;shadow=0;sketch=0;strokeColor=#000000;fontSize=3;" vertex="1" parent="9Q_260vBjeD41utI28-m-689">
          <mxGeometry x="15" width="54" height="10" as="geometry">
            <mxRectangle width="54" height="10" as="alternateBounds" />
          </mxGeometry>
        </mxCell>
        <mxCell id="9Q_260vBjeD41utI28-m-692" style="shape=tableRow;horizontal=0;startSize=0;swimlaneHead=0;swimlaneBody=0;top=0;left=0;bottom=0;right=0;collapsible=0;dropTarget=0;fillColor=none;points=[[0,0.5],[1,0.5]];portConstraint=eastwest;shadow=0;sketch=0;strokeColor=#000000;fontSize=3;" vertex="1" parent="9Q_260vBjeD41utI28-m-682">
          <mxGeometry y="60" width="69" height="10" as="geometry" />
        </mxCell>
        <mxCell id="9Q_260vBjeD41utI28-m-693" value="4" style="shape=partialRectangle;html=1;whiteSpace=wrap;connectable=0;fillColor=none;top=0;left=0;bottom=0;right=0;overflow=hidden;shadow=0;sketch=0;strokeColor=#000000;fontSize=3;" vertex="1" parent="9Q_260vBjeD41utI28-m-692">
          <mxGeometry width="15" height="10" as="geometry">
            <mxRectangle width="15" height="10" as="alternateBounds" />
          </mxGeometry>
        </mxCell>
        <mxCell id="9Q_260vBjeD41utI28-m-694" value="GROUND&amp;nbsp;(PSU1b)" style="shape=partialRectangle;html=1;whiteSpace=wrap;connectable=0;fillColor=none;top=0;left=0;bottom=0;right=0;align=left;spacingLeft=6;overflow=hidden;shadow=0;sketch=0;strokeColor=#000000;fontSize=3;" vertex="1" parent="9Q_260vBjeD41utI28-m-692">
          <mxGeometry x="15" width="54" height="10" as="geometry">
            <mxRectangle width="54" height="10" as="alternateBounds" />
          </mxGeometry>
        </mxCell>
        <mxCell id="9Q_260vBjeD41utI28-m-695" style="shape=tableRow;horizontal=0;startSize=0;swimlaneHead=0;swimlaneBody=0;top=0;left=0;bottom=0;right=0;collapsible=0;dropTarget=0;fillColor=none;points=[[0,0.5],[1,0.5]];portConstraint=eastwest;shadow=0;sketch=0;strokeColor=#000000;fontSize=3;" vertex="1" parent="9Q_260vBjeD41utI28-m-682">
          <mxGeometry y="70" width="69" height="10" as="geometry" />
        </mxCell>
        <mxCell id="9Q_260vBjeD41utI28-m-696" value="5" style="shape=partialRectangle;html=1;whiteSpace=wrap;connectable=0;fillColor=none;top=0;left=0;bottom=0;right=0;overflow=hidden;shadow=0;sketch=0;strokeColor=#000000;fontSize=3;" vertex="1" parent="9Q_260vBjeD41utI28-m-695">
          <mxGeometry width="15" height="10" as="geometry">
            <mxRectangle width="15" height="10" as="alternateBounds" />
          </mxGeometry>
        </mxCell>
        <mxCell id="9Q_260vBjeD41utI28-m-697" value="TX" style="shape=partialRectangle;html=1;whiteSpace=wrap;connectable=0;fillColor=none;top=0;left=0;bottom=0;right=0;align=left;spacingLeft=6;overflow=hidden;shadow=0;sketch=0;strokeColor=#000000;fontSize=3;" vertex="1" parent="9Q_260vBjeD41utI28-m-695">
          <mxGeometry x="15" width="54" height="10" as="geometry">
            <mxRectangle width="54" height="10" as="alternateBounds" />
          </mxGeometry>
        </mxCell>
        <mxCell id="9Q_260vBjeD41utI28-m-698" style="shape=tableRow;horizontal=0;startSize=0;swimlaneHead=0;swimlaneBody=0;top=0;left=0;bottom=0;right=0;collapsible=0;dropTarget=0;fillColor=none;points=[[0,0.5],[1,0.5]];portConstraint=eastwest;shadow=0;sketch=0;strokeColor=#000000;fontSize=3;" vertex="1" parent="9Q_260vBjeD41utI28-m-682">
          <mxGeometry y="80" width="69" height="10" as="geometry" />
        </mxCell>
        <mxCell id="9Q_260vBjeD41utI28-m-699" value="6" style="shape=partialRectangle;html=1;whiteSpace=wrap;connectable=0;fillColor=none;top=0;left=0;bottom=0;right=0;overflow=hidden;shadow=0;sketch=0;strokeColor=#000000;fontSize=3;" vertex="1" parent="9Q_260vBjeD41utI28-m-698">
          <mxGeometry width="15" height="10" as="geometry">
            <mxRectangle width="15" height="10" as="alternateBounds" />
          </mxGeometry>
        </mxCell>
        <mxCell id="9Q_260vBjeD41utI28-m-700" value="GROUND" style="shape=partialRectangle;html=1;whiteSpace=wrap;connectable=0;fillColor=none;top=0;left=0;bottom=0;right=0;align=left;spacingLeft=6;overflow=hidden;shadow=0;sketch=0;strokeColor=#000000;fontSize=3;" vertex="1" parent="9Q_260vBjeD41utI28-m-698">
          <mxGeometry x="15" width="54" height="10" as="geometry">
            <mxRectangle width="54" height="10" as="alternateBounds" />
          </mxGeometry>
        </mxCell>
        <mxCell id="9Q_260vBjeD41utI28-m-701" style="shape=tableRow;horizontal=0;startSize=0;swimlaneHead=0;swimlaneBody=0;top=0;left=0;bottom=0;right=0;collapsible=0;dropTarget=0;fillColor=none;points=[[0,0.5],[1,0.5]];portConstraint=eastwest;shadow=0;sketch=0;strokeColor=#000000;fontSize=3;" vertex="1" parent="9Q_260vBjeD41utI28-m-682">
          <mxGeometry y="90" width="69" height="10" as="geometry" />
        </mxCell>
        <mxCell id="9Q_260vBjeD41utI28-m-702" value="7" style="shape=partialRectangle;html=1;whiteSpace=wrap;connectable=0;fillColor=none;top=0;left=0;bottom=0;right=0;overflow=hidden;shadow=0;sketch=0;strokeColor=#000000;fontSize=3;" vertex="1" parent="9Q_260vBjeD41utI28-m-701">
          <mxGeometry width="15" height="10" as="geometry">
            <mxRectangle width="15" height="10" as="alternateBounds" />
          </mxGeometry>
        </mxCell>
        <mxCell id="9Q_260vBjeD41utI28-m-703" value="x" style="shape=partialRectangle;html=1;whiteSpace=wrap;connectable=0;fillColor=none;top=0;left=0;bottom=0;right=0;align=left;spacingLeft=6;overflow=hidden;shadow=0;sketch=0;strokeColor=#000000;fontSize=3;" vertex="1" parent="9Q_260vBjeD41utI28-m-701">
          <mxGeometry x="15" width="54" height="10" as="geometry">
            <mxRectangle width="54" height="10" as="alternateBounds" />
          </mxGeometry>
        </mxCell>
        <mxCell id="9Q_260vBjeD41utI28-m-704" value="" style="shape=tableRow;horizontal=0;startSize=0;swimlaneHead=0;swimlaneBody=0;fillColor=none;collapsible=0;dropTarget=0;points=[[0,0.5],[1,0.5]];portConstraint=eastwest;top=0;left=0;right=0;bottom=0;" vertex="1" parent="9Q_260vBjeD41utI28-m-682">
          <mxGeometry y="100" width="69" height="7" as="geometry" />
        </mxCell>
        <mxCell id="9Q_260vBjeD41utI28-m-705" value="8" style="shape=partialRectangle;connectable=0;fillColor=none;top=0;left=0;bottom=0;right=0;fontStyle=0;overflow=hidden;fontSize=3;" vertex="1" parent="9Q_260vBjeD41utI28-m-704">
          <mxGeometry width="15" height="7" as="geometry">
            <mxRectangle width="15" height="7" as="alternateBounds" />
          </mxGeometry>
        </mxCell>
        <mxCell id="9Q_260vBjeD41utI28-m-706" value="DATA OUT" style="shape=partialRectangle;connectable=0;fillColor=none;top=0;left=0;bottom=0;right=0;align=left;spacingLeft=6;fontStyle=0;overflow=hidden;fontSize=3;" vertex="1" parent="9Q_260vBjeD41utI28-m-704">
          <mxGeometry x="15" width="54" height="7" as="geometry">
            <mxRectangle width="54" height="7" as="alternateBounds" />
          </mxGeometry>
        </mxCell>
        <mxCell id="9Q_260vBjeD41utI28-m-707" value="GX16-8" style="text;strokeColor=none;fillColor=none;html=1;fontSize=6;fontStyle=1;verticalAlign=middle;align=center;shadow=0;sketch=0;" vertex="1" parent="1">
          <mxGeometry x="-1089.7900000000002" y="220" width="26.28" height="9.36" as="geometry" />
        </mxCell>
        <mxCell id="9Q_260vBjeD41utI28-m-708" value="" style="ellipse;whiteSpace=wrap;html=1;aspect=fixed;" vertex="1" parent="1">
          <mxGeometry x="-1078.0400000000002" y="255.58000000000004" width="3" height="3" as="geometry" />
        </mxCell>
        <mxCell id="9Q_260vBjeD41utI28-m-709" value="4" style="text;html=1;strokeColor=none;fillColor=none;align=center;verticalAlign=middle;whiteSpace=wrap;rounded=0;fontSize=3;" vertex="1" parent="1">
          <mxGeometry x="-1080.95" y="258.58000000000004" width="10" height="5" as="geometry" />
        </mxCell>
      </root>
    </mxGraphModel>
  </diagram>
</mxfile>
